<svg width="1280" height="1058" viewBox="0 0 1280 1058" fill="none" xmlns="http://www.w3.org/2000/svg">
<path d="M241.6 1.59998C219.7 6.29999 201.4 20.6 192.1 40.3C190.5 43.7 181.9 63.6 173 84.5C129 187.8 95.2002 267 53.5002 364.5C28.3002 423.3 6.10017 476 4.10017 481.5L0.500172 491.5L0.200172 621C-0.0998281 767 -0.499828 759.1 7.50017 775.5C16.6002 794.3 32.1002 807.3 52.7002 813.2L60.5002 815.5H640H1219.5L1227.3 813.2C1247.9 807.3 1263.4 794.3 1272.5 775.5C1280.5 759.1 1280.1 767 1279.8 621L1279.5 491.5L1275.9 481.5C1273.9 476 1251.7 423.3 1226.5 364.5C1184.8 267 1151 187.8 1107 84.5C1098.1 63.6 1089.5 43.7 1087.9 40.3C1079.4 22.4 1062.9 8.59998 1042.5 2.39996C1036.7 0.599976 1021.2 0.5 642.5 0.299988C296.4 0.200012 247.7 0.299988 241.6 1.59998ZM1017.2 93.8C1020.1 95.6 1022 98.1 1025 104.3C1028.4 111.1 1132.1 370.2 1131.6 370.7C1131.6 370.7 1020.9 370.5 885.8 370.1C750.6 369.6 529.4 369.6 394.3 370.1C259.1 370.5 148.4 370.7 148.4 370.7C147.9 370.2 251.6 111.1 255 104.4C258.9 96.3 261.6 93.6 266.9 92C268.3 91.5 436.9 91.2 641.5 91.3L1013.5 91.5L1017.2 93.8ZM820 547V592H640H460V547V502H640H820V547Z" fill="white"/>
<path d="M76.9001 841.4C76.7001 841.6 76.7001 883.8 77.0001 935.2L77.5001 1028.5L80.3001 1034.2C84.6001 1043 91.0001 1049.4 99.8001 1053.7L107.4 1057.5L165.3 1057.8C215.3 1058 224 1057.9 229.3 1056.5C241.4 1053.4 250.5 1045.9 256.1 1034.4L259.5 1027.5L259.8 934.2L260 841H168.7C118.4 841 77.1001 841.2 76.9001 841.4Z" fill="white"/>
<path d="M1020.2 934.2L1020.5 1027.5L1023.9 1034.4C1029.5 1045.9 1038.6 1053.4 1050.7 1056.5C1056 1057.9 1064.7 1058 1114.7 1057.8L1172.6 1057.5L1180.2 1053.7C1189 1049.4 1195.4 1043 1199.7 1034.2L1202.5 1028.5L1203 935.2C1203.3 883.8 1203.3 841.6 1203.1 841.4C1202.9 841.2 1161.6 841 1111.3 841H1020L1020.2 934.2Z" fill="white"/>
</svg>
