<svg width="1280" height="1034" viewBox="0 0 1280 1034" fill="none" xmlns="http://www.w3.org/2000/svg">
<path d="M329.9 0.400024C329.7 0.599976 325.2 1.5 320 2.40002C283.5 8.59998 252.9 31 236.7 63.6C234.8 67.4 207.1 132.6 175.2 208.5C143.3 284.4 116.7 347.7 116 349.1C115.1 351.1 113.2 352.2 107.7 353.9C99.2 356.7 81.7 364.7 74.5 369.2C38.4 392 13.4 427.5 4.6 468.5C0 489.8 0 488.3 0 664.5V831L51.3 831.2L102.5 831.5L103.1 889.5L103.6 947.5L106.3 957.5C109.2 968.2 114.8 980.8 120.5 989.4C131.1 1005.4 149 1019.6 167.3 1026.5C174.9 1029.3 197.1 1034 203 1034C209.6 1034 231.5 1029.2 239.7 1025.9C269.5 1014.1 291.1 989.5 299.7 957.5L302.4 947.5L302.9 889.5L303.5 831.5H640H976.5L977.1 890.5C977.6 941.9 977.9 950.3 979.4 956C984.8 976.5 993.9 992.1 1008.6 1006C1024.2 1020.6 1040.9 1028.5 1064.9 1032.5C1076.3 1034.4 1080.3 1034.2 1096.5 1030.9C1135.6 1023 1166 992.9 1174.6 953.5C1176.1 946.4 1176.3 938.8 1176.4 888.5L1176.5 831.5L1227.5 831L1278.5 830.5L1279 663.5C1279.5 511 1279.4 495.4 1277.8 484C1275 462.8 1271.8 451.7 1263.9 435C1255.8 418.1 1247.3 406.1 1233.1 392C1214.7 373.7 1196.2 362.1 1173.2 354.5C1166.7 352.4 1164.7 351.3 1163.6 349.2C1162.8 347.7 1135.8 283.5 1103.5 206.5C1071.2 129.5 1043.2 63.6 1041.3 60C1030 39.5 1010.2 20.9 989.4 11.4C979.5 6.90002 970.8 4.29993 957.4 2C946.3 0 941.1 0 638.2 0C468.9 0 330.1 0.199951 329.9 0.400024ZM946.1 84.1C952.9 87.3 958.8 93 961.7 99C966.6 109.5 1064 343.2 1064 344.5C1064 345.8 1010.8 346 639.9 346H215.8L216.2 343.2C216.7 340.5 314.2 106.5 317.9 99.2C322.1 90.9 328.8 85.4 338.3 82.4C341.7 81.4 396.1 81.2 641.5 81.3L940.5 81.5L946.1 84.1ZM218.5 446.1C243.7 448.6 265 458.7 282.5 476.4C302 496.1 312 520.5 312 548.3C311.9 595.2 280.6 635.4 234.5 648C222.5 651.3 201.6 651.8 189 649.2C169 645.1 152.4 636.3 137.7 622.1C122.3 607.3 112.3 589.1 108.1 568.3C96.1 509.4 138.1 452.2 198 446.1C202.7 445.7 206.8 445.2 207.1 445.1C207.4 445.1 212.6 445.5 218.5 446.1ZM1081.4 447.1C1103.8 450.3 1129.1 465.1 1144 483.6C1172.6 519.4 1174.7 566.9 1149.4 605.7C1144.2 613.6 1129 628.7 1120.4 634.3C1111.9 639.9 1099.8 645.2 1088.7 648.2C1081.6 650.2 1078.1 650.5 1063.5 650.4C1049.4 650.4 1045.2 650 1038.8 648.2C1020.5 643.2 1004 633.7 991.3 620.9C978.4 608 970 593.8 964.4 575.4C961.8 567.1 961.6 565.2 961.6 548.5C961.6 533.1 961.9 529.4 963.8 522.7C968.9 504.2 977.6 489.3 990.9 475.9C1015.2 451.7 1045.5 442 1081.4 447.1Z" fill="white"/>
</svg>
