<svg width="1280" height="618" viewBox="0 0 1280 618" fill="none" xmlns="http://www.w3.org/2000/svg">
<path d="M739 1.09933C621.2 5.99933 525.1 34.1993 443.5 87.6993C411.7 108.699 388 128.499 343.9 171.299C310.6 203.599 298.6 214.399 290.5 219.099C277.5 226.699 244.5 234.699 190 243.399C151.8 249.499 135.6 254.199 111.5 265.999C72.9 284.899 45.6 309.699 22.2 347.399C2.49998 378.899 -2.50001 399.099 0.999985 432.499C5.69998 478.399 26.1 507.499 59.6 515.999C66.6 517.799 70.7 517.999 102.3 517.999H137.2L136.6 514.699C125.4 461.399 141.5 407.299 180 368.999C203 345.899 228.5 331.999 260.7 324.699C269.2 322.799 273.5 322.499 293 322.499C318.2 322.499 326.5 323.799 346.3 330.599C392.7 346.799 429.8 384.499 445 430.999C450.7 448.299 453 462.699 453 481.299C453 494.699 451.3 511.499 449.4 516.399C448.8 517.899 465.4 517.999 657 517.999H865.2L864.6 515.699C860.4 500.399 860 467.999 864 449.699C874.7 399.599 907.6 357.999 953.7 336.399C965.3 330.899 982.5 325.699 995.6 323.599C1010 321.299 1033.7 321.499 1048.2 323.899C1118 335.899 1171.2 392.099 1180.1 463.399C1181.5 475.199 1180.8 499.099 1178.5 509.899C1177.7 513.999 1177.2 517.499 1177.4 517.699C1177.9 518.299 1197.1 515.999 1205.2 514.399C1244.9 506.599 1271.2 483.099 1278.1 449.499C1280 440.199 1280.1 435.899 1279.8 323.699L1279.5 207.499L1277.2 199.999C1273.4 187.699 1267.6 177.799 1259.5 169.699C1251.7 161.799 1245.1 157.499 1233.8 152.799C1226.8 149.799 1225.6 149.699 1207.5 148.999C1179.7 147.899 1160.8 143.399 1140.1 133.099C1126.8 126.399 1120.6 121.999 1096.5 102.399C1052.5 66.6993 1034.7 54.3993 1007 40.3993C957.9 15.6993 901.5 4.19933 813.5 0.999329C783.6 -0.100671 766.6 -0.100671 739 1.09933ZM894.1 66.9993C935.2 71.0993 983.1 88.6993 1019.5 113.099C1069.4 146.599 1083.5 182.099 1057.5 208.599C1043.3 222.899 1020.6 233.999 995.6 238.799C987.5 240.299 978.8 240.499 919.5 240.499C853.2 240.499 852.4 240.499 847.9 238.399C842.6 235.899 838.7 231.299 837 225.499C836.2 222.599 836 205.799 836.2 163.999C836.6 112.599 836.8 105.899 838.4 100.499C843.6 82.8993 854.7 71.0993 869.5 67.3993C875.9 65.7993 881.2 65.6993 894.1 66.9993ZM745.4 72.3993C753 76.0993 759.4 82.4993 762.8 89.7993L765.5 95.4993L765.8 151.299C766 187.099 765.7 209.099 765 212.799C763 223.699 755.5 236.099 748.9 239.599C746.5 240.799 725.6 240.999 599.5 240.999H452.9L445.2 238.399C426.2 232.099 417.3 221.399 420 208.399C422.1 198.299 432.7 184.199 452.9 164.799C495.1 124.099 554.1 95.2993 631.8 77.4993C659.1 71.2993 681.3 69.0993 717 69.3993L739.5 69.4993L745.4 72.3993Z" fill="white"/>
<path d="M271 347.499C242.1 352.399 217.2 365.399 196.4 386.499C177.7 405.399 165.6 428.299 159.9 455.299C157 468.899 156.8 492.199 159.4 505.999C168.9 555.299 203.3 594.799 250.3 610.499C277.6 619.599 307.9 619.799 335.2 610.899C384.3 594.999 419.4 553.399 427.7 501.499C429.6 489.399 429 465.499 426.5 453.999C420.9 428.199 409.3 406.699 390.8 387.499C369.9 365.699 344.3 352.299 314.5 347.499C303.7 345.699 281.4 345.699 271 347.499ZM309.5 419.699C331.6 425.199 349.7 443.399 355.5 465.899C357.6 473.999 357.6 489.499 355.5 497.499C351.1 514.799 337.8 531.099 322 538.899C306.1 546.699 290.1 547.899 273.4 542.599C242 532.599 222.8 498.799 230.8 467.199C234.2 453.899 238.3 446.699 248 436.999C265.3 419.599 286 413.799 309.5 419.699Z" fill="white"/>
<path d="M999 347.399C975.8 351.499 955.1 360.699 936.2 375.199C928.7 380.999 915.4 395.299 909.3 404.199C899 418.999 891.3 437.199 887.3 455.999C884.6 468.599 884.8 495.999 887.7 508.999C897.1 551.099 922.7 584.299 960.7 603.299C979.7 612.899 998.8 617.299 1021 617.299C1049.1 617.299 1072.1 610.399 1097 594.299C1107.4 587.499 1126.4 568.699 1133.5 557.999C1156.3 523.699 1162.7 482.699 1151.4 443.199C1148.1 431.399 1137.5 410.399 1129.6 399.899C1117.1 383.399 1096.9 366.899 1078.8 358.599C1069.9 354.499 1058.8 350.699 1048.7 348.499C1038.9 346.199 1009.1 345.599 999 347.399ZM1037.5 419.599C1057.7 424.799 1075.6 441.799 1082.1 461.999C1085.4 472.099 1085.8 487.499 1083.1 497.499C1079.8 509.599 1074.7 518.399 1066 526.999C1050.6 542.499 1029.1 548.899 1007.8 544.499C988.6 540.399 972.2 527.599 963.7 509.899C958.1 498.299 956.6 491.099 957.2 478.299C958.1 461.299 964 447.999 976.1 435.899C992.1 419.999 1015.1 413.899 1037.5 419.599Z" fill="white"/>
</svg>
